<?xml version="1.0" encoding="UTF-8" standalone="no"?>
<svg
   xmlns:dc="http://purl.org/dc/elements/1.1/"
   xmlns:cc="http://creativecommons.org/ns#"
   xmlns:rdf="http://www.w3.org/1999/02/22-rdf-syntax-ns#"
   xmlns:svg="http://www.w3.org/2000/svg"
   xmlns="http://www.w3.org/2000/svg"
   xmlns:sodipodi="http://sodipodi.sourceforge.net/DTD/sodipodi-0.dtd"
   xmlns:inkscape="http://www.inkscape.org/namespaces/inkscape"
   width="16"
   height="16"
   fill="currentColor"
   class="bi bi-upload"
   viewBox="0 0 16 16"
   version="1.1"
   id="svg6"
   sodipodi:docname="upload.svg"
   inkscape:version="1.0.2 (e86c870879, 2021-01-15)">
  <metadata
     id="metadata12">
    <rdf:RDF>
      <cc:Work
         rdf:about="">
        <dc:format>image/svg+xml</dc:format>
        <dc:type
           rdf:resource="http://purl.org/dc/dcmitype/StillImage" />
      </cc:Work>
    </rdf:RDF>
  </metadata>
  <defs
     id="defs10" />
  <sodipodi:namedview
     pagecolor="#ffffff"
     bordercolor="#666666"
     borderopacity="1"
     objecttolerance="10"
     gridtolerance="10"
     guidetolerance="10"
     inkscape:pageopacity="0"
     inkscape:pageshadow="2"
     inkscape:window-width="3036"
     inkscape:window-height="1846"
     id="namedview8"
     showgrid="false"
     inkscape:zoom="45.254834"
     inkscape:cx="0.5915819"
     inkscape:cy="5.1729342"
     inkscape:window-x="0"
     inkscape:window-y="0"
     inkscape:window-maximized="0"
     inkscape:current-layer="svg6" />
  <path
     d="M.5 9.9a.5.5 0 0 1 .5.5v2.5a1 1 0 0 0 1 1h12a1 1 0 0 0 1-1v-2.5a.5.5 0 0 1 1 0v2.5a2 2 0 0 1-2 2H2a2 2 0 0 1-2-2v-2.5a.5.5 0 0 1 .5-.5z"
     id="path2"
     style="fill:#ffffff;fill-opacity:1" />
  <path
     d="M7.646 1.146a.5.5 0 0 1 .708 0l3 3a.5.5 0 0 1-.708.708L8.5 2.707V11.5a.5.5 0 0 1-1 0V2.707L5.354 4.854a.5.5 0 1 1-.708-.708l3-3z"
     id="path4"
     style="fill:#ffffff;fill-opacity:1" />
  <path
     style="fill:#ffffff;stroke-width:0.0223776;fill-opacity:1"
     d="M 7.8639476,11.963819 C 7.7319984,11.921074 7.6430984,11.847346 7.5769437,11.725798 l -0.058063,-0.10668 V 7.1634052 c 0,-2.4506421 -0.00742,-4.4557129 -0.016481,-4.4557129 -0.00907,0 -0.510044,0.492941 -1.1132868,1.0954245 C 5.2333005,4.957474 5.1967924,4.9886557 4.9998168,4.9897184 4.8675483,4.990432 4.6811239,4.8889378 4.6001762,4.7721439 4.5231599,4.6610222 4.4981116,4.4669955 4.5426897,4.3268469 4.5648195,4.2572733 4.8698091,3.9400924 6.1172357,2.6893617 6.995851,1.8084192 7.7078467,1.1122774 7.765035,1.0782537 c 0.1416089,-0.0842491 0.3283211,-0.0842491 0.46993,0 0.057188,0.034024 0.769184,0.7301655 1.6477993,1.611108 1.2474267,1.2507307 1.5524167,1.5679116 1.5745457,1.6374852 0.04458,0.1401486 0.01953,0.3341753 -0.05749,0.445297 C 11.318876,4.8889378 11.132452,4.990432 11.000183,4.9897184 10.803208,4.9886554 10.766699,4.957474 9.6108872,3.8031168 9.0076444,3.2006333 8.5066654,2.7076923 8.4976004,2.7076923 c -0.00906,0 -0.016481,2.0068791 -0.016481,4.4597313 v 4.4597314 l -0.072727,0.120995 c -0.114351,0.190244 -0.3431514,0.280878 -0.5444448,0.215669 z"
     id="path14" />
  <path
     style="fill:#ffffff;stroke-width:0.0223776;fill-opacity:1"
     d="M 1.6111888,14.849331 C 1.0925308,14.733712 0.64487575,14.436479 0.35511575,14.015327 0.24614561,13.856945 0.11675945,13.561317 0.06195436,13.345499 0.01221774,13.14964 0.01150775,13.12676 0.01134941,11.714685 l -1.606e-4,-1.432168 0.0497002,-0.09294 C 0.12122646,10.076745 0.25203149,9.9648263 0.35804196,9.9353292 0.6120175,9.864661 0.87723354,10.00204 0.95914735,10.246696 c 0.0178876,0.05343 0.0255665,0.47304 0.0257988,1.40979 2.7547e-4,1.111072 0.005978,1.357682 0.0341595,1.47724 0.094248,0.399839 0.4247979,0.70348 0.829508,0.761981 0.2115521,0.03058 12.0912204,0.03058 12.3027724,0 0.406144,-0.05871 0.734927,-0.360726 0.829508,-0.761981 0.02818,-0.119558 0.03388,-0.366168 0.03416,-1.47724 2.33e-4,-0.93675 0.0079,-1.356364 0.0258,-1.40979 0.04183,-0.124928 0.130154,-0.223091 0.251633,-0.2796547 0.247967,-0.1154598 0.51503,-0.02355 0.646625,0.2225357 l 0.0497,0.09294 -1.56e-4,1.432168 c -1.57e-4,1.412075 -8.69e-4,1.434955 -0.0506,1.630814 -0.178926,0.704597 -0.668544,1.226626 -1.370214,1.460919 l -0.190214,0.06351 -6.3216779,0.0034 c -4.9200452,0.0027 -6.3489668,-0.0027 -6.4447553,-0.02402 z"
     id="path16" />
  <path
     style="fill:#ffffff;stroke-width:0.00390625;fill-opacity:1"
     d="M 4.9250132,4.9928744 C 4.8533715,4.9811845 4.7810179,4.9526767 4.7209061,4.9124544 4.6823077,4.8866274 4.6136067,4.8181094 4.5881509,4.7800529 c -0.038066,-0.056909 -0.063159,-0.1172836 -0.077929,-0.1875 -0.00969,-0.046085 -0.00958,-0.141769 2.138e-4,-0.1873419 0.01466,-0.068183 0.042414,-0.1332969 0.081651,-0.1915644 0.015375,-0.022832 0.3555462,-0.3653294 1.541503,-1.5520458 0.836976,-0.8375119 1.5353419,-1.5337024 1.5519243,-1.5470901 0.05974,-0.04823 0.1205915,-0.078599 0.1983658,-0.098996 0.050603,-0.013271 0.1417754,-0.0167027 0.1963996,-0.00739 0.07063,0.012039 0.1387966,0.03954 0.2020069,0.081498 0.043962,0.02918 3.0993977,3.0849348 3.1286407,3.1289668 0.05819,0.087616 0.08623,0.1793836 0.08623,0.2821688 0,0.1764423 -0.09261,0.3385584 -0.244658,0.4282934 C 11.086455,5.0270454 10.883366,5.02049 10.719817,4.911856 10.696811,4.896574 10.540395,4.7422828 9.9913016,4.193235 9.6067313,3.8086965 9.2942711,3.4946986 9.2969457,3.4954619 c 0.00267,7.633e-4 0.1977918,0.1939633 0.4335938,0.4293334 0.5621805,0.56115 0.7140745,0.7096329 0.8658145,0.8463661 0.14175,0.1277303 0.222938,0.1845454 0.297291,0.2080419 0.03854,0.01218 0.119604,0.015212 0.16709,0.00625 0.0977,-0.01844 0.207127,-0.075841 0.283373,-0.1486425 0.07086,-0.067657 0.10467,-0.1323496 0.126591,-0.2422121 0.01817,-0.091073 0.0086,-0.2329708 -0.01926,-0.2840656 C 11.433372,4.2773295 11.371406,4.204146 11.263568,4.0886466 10.895942,3.6949016 8.9871055,1.7841177 8.434661,1.2568539 8.2917308,1.1204386 8.2451687,1.0799571 8.2119536,1.0632303 8.0827597,0.99816925 7.92119,0.99777715 7.791161,1.0622091 7.7463952,1.0843914 7.7181362,1.1097482 7.4484988,1.3696805 7.152213,1.655302 6.8352803,1.9687573 6.1924735,2.6119246 5.0280746,3.7769764 4.6319763,4.1847535 4.5594067,4.2931417 c -0.026893,0.040166 -0.038808,0.097953 -0.038808,0.1882066 0,0.1518741 0.044669,0.2721835 0.1310636,0.3530015 0.070822,0.066251 0.1635334,0.1187472 0.2533526,0.1434578 0.044582,0.012265 0.1204223,0.0166 0.1652627,0.00944 C 5.1675325,4.9717345 5.2609771,4.9057943 5.4932018,4.6888104 5.6192912,4.5709962 5.699219,4.4922958 6.3440009,3.8510758 6.6776339,3.5192858 6.951349,3.2485638 6.9522566,3.2494714 6.9531642,3.250379 6.5852698,3.6194903 6.1347135,4.0697187 5.4026876,4.8012121 5.3116793,4.8908483 5.2794221,4.912115 5.2200951,4.951228 5.1633231,4.975059 5.0957544,4.98921 5.0531044,4.99814 4.9684353,4.99996 4.9250132,4.99287 Z"
     id="path18" />
</svg>
